<svg xmlns="http://www.w3.org/2000/svg" width="80" height="78" id="notes">
  <path fill="#3F4662" fill-rule="evenodd" d="M75.8 11.6a1.985 1.985 0 0 0-2.6 3 7.392 7.392 0 0 1 2.8 5.8v46.4a7.514 7.514 0 0 1-7.4 7.4H11.4A7.514 7.514 0 0 1 4 66.8V20.4a7.514 7.514 0 0 1 7.4-7.4h30a2 2 0 1 0 0-4h-30A11.27 11.27 0 0 0 0 20.4v46.2C.068 72.868 5.132 77.932 11.4 78h57A11.4 11.4 0 0 0 80 66.8V20.4a11.606 11.606 0 0 0-4.2-8.8zM56.2 68a2.3 2.3 0 0 0 1.8 1.2 1.922 1.922 0 0 0 1.8-1.2l6-12.2a1.2 1.2 0 0 0 .2-.8V8a8 8 0 1 0-16 0v47a.965.965 0 0 0 .2.8l6 12.2zm1.8-5.4L55.2 57h5.6L58 62.6zM54 8a4 4 0 1 1 8 0v17.2h-8V8zm0 21.2h8v4h-8v-4zm0 8.2h8V53h-8V37.4zm-14.2-5H12.2a2 2 0 1 0 0 4H40a1.847 1.847 0 0 0 1.8-2 1.89 1.89 0 0 0-2-2zm0 8H12.2a2 2 0 1 0 0 4H40a1.847 1.847 0 0 0 1.8-2 1.89 1.89 0 0 0-2-2zm0 8H12.2a2 2 0 1 0 0 4H40a1.847 1.847 0 0 0 1.8-2 1.89 1.89 0 0 0-2-2z"></path>
</svg>
